<?xml version="1.0" encoding="UTF-8"?>
<svg width="32" height="32" viewBox="0 0 32 32" fill="none" xmlns="http://www.w3.org/2000/svg">
    <!-- Background Circle -->
    <circle cx="16" cy="16" r="16" fill="url(#gradient)"/>
    
    <!-- Camera Icon -->
    <path d="M22 12H20.5L19 10H13L11.5 12H10C8.9 12 8 12.9 8 14V22C8 23.1 8.9 24 10 24H22C23.1 24 24 23.1 24 22V14C24 12.9 23.1 12 22 12ZM16 20C13.24 20 11 17.76 11 15C11 12.24 13.24 10 16 10C18.76 10 21 12.24 21 15C21 17.76 18.76 20 16 20Z" fill="white"/>
    
    <!-- Gradient Definition -->
    <defs>
        <linearGradient id="gradient" x1="0" y1="0" x2="32" y2="32" gradientUnits="userSpaceOnUse">
            <stop offset="0%" stop-color="#6366F1"/>
            <stop offset="100%" stop-color="#3F2B96"/>
        </linearGradient>
    </defs>
</svg> 